<svg width="22" height="22" viewBox="0 0 22 22" fill="none" xmlns="http://www.w3.org/2000/svg">
<path d="M4.12498 20.1667V15.5833M4.12498 6.41668V1.83334M1.83331 4.12501H6.41665M1.83331 17.875H6.41665M11.9166 2.75001L10.327 6.88313C10.0685 7.55526 9.93922 7.89133 9.73822 8.17401C9.56007 8.42454 9.34118 8.64343 9.09064 8.82158C8.80796 9.02258 8.4719 9.15184 7.79977 9.41035L3.66665 11L7.79977 12.5897C8.4719 12.8482 8.80796 12.9774 9.09064 13.1784C9.34118 13.3566 9.56007 13.5755 9.73822 13.826C9.93922 14.1087 10.0685 14.4448 10.327 15.1169L11.9166 19.25L13.5063 15.1169C13.7648 14.4448 13.8941 14.1087 14.0951 13.826C14.2732 13.5755 14.4921 13.3566 14.7427 13.1784C15.0253 12.9774 15.3614 12.8482 16.0335 12.5897L20.1666 11L16.0335 9.41035C15.3614 9.15184 15.0253 9.02258 14.7427 8.82158C14.4921 8.64343 14.2732 8.42454 14.0951 8.17401C13.8941 7.89133 13.7648 7.55526 13.5063 6.88313L11.9166 2.75001Z" stroke="black" stroke-width="1.55833" stroke-linecap="round" stroke-linejoin="round"/>
</svg>
