<svg width="22" height="22" viewBox="0 0 22 22" fill="none" xmlns="http://www.w3.org/2000/svg">
<path d="M10.3424 3.16553C10.5537 2.7375 10.6593 2.52349 10.8027 2.45511C10.9275 2.39562 11.0725 2.39562 11.1973 2.45511C11.3407 2.52349 11.4463 2.7375 11.6576 3.16553L13.662 7.22633C13.7244 7.3527 13.7556 7.41588 13.8012 7.46493C13.8415 7.50837 13.8899 7.54356 13.9437 7.56856C14.0044 7.59679 14.0741 7.60698 14.2136 7.62737L18.6972 8.28272C19.1694 8.35173 19.4054 8.38624 19.5147 8.50156C19.6098 8.60189 19.6545 8.73976 19.6364 8.87678C19.6156 9.03427 19.4447 9.20074 19.1028 9.53367L15.8596 12.6925C15.7585 12.791 15.708 12.8402 15.6754 12.8988C15.6465 12.9507 15.628 13.0077 15.6208 13.0666C15.6127 13.1332 15.6247 13.2027 15.6485 13.3418L16.4138 17.8036C16.4945 18.2742 16.5348 18.5095 16.459 18.6491C16.393 18.7706 16.2757 18.8558 16.1398 18.881C15.9835 18.91 15.7723 18.7989 15.3497 18.5766L11.3413 16.4687C11.2164 16.403 11.154 16.3702 11.0882 16.3572C11.03 16.3458 10.97 16.3458 10.9118 16.3572C10.846 16.3702 10.7836 16.403 10.6587 16.4687L6.65033 18.5766C6.22774 18.7989 6.01644 18.91 5.8602 18.881C5.72427 18.8558 5.60697 18.7706 5.54099 18.6491C5.46515 18.5095 5.5055 18.2742 5.58621 17.8036L6.35146 13.3418C6.37532 13.2027 6.38724 13.1332 6.37917 13.0666C6.37203 13.0077 6.3535 12.9507 6.32462 12.8988C6.292 12.8402 6.24145 12.791 6.14035 12.6925L2.89716 9.53367C2.55534 9.20074 2.38443 9.03427 2.36363 8.87678C2.34553 8.73976 2.39024 8.60189 2.48529 8.50156C2.59455 8.38624 2.83062 8.35173 3.30277 8.28272L7.78643 7.62737C7.92587 7.60698 7.99559 7.59679 8.0563 7.56856C8.11006 7.54356 8.15846 7.50837 8.19882 7.46493C8.24439 7.41588 8.27558 7.3527 8.33796 7.22633L10.3424 3.16553Z" stroke="#EFEFF0" stroke-linecap="round" stroke-linejoin="round"/>
</svg>
